<svg xmlns="http://www.w3.org/2000/svg" width="240" height="180" viewBox="0 0 240 180" fill="none">
  <ellipse cx="118.5" cy="154.5" rx="88.5" ry="25.5" fill="#E6E9F2"/>
  <path d="M113.064 138.334C131.47 138.334 146.398 123.405 146.398 105C146.398 86.594 131.47 71.666 113.064 71.666C94.6589 71.666 79.7305 86.594 79.7305 105C79.7305 123.405 94.6589 138.334 113.064 138.334Z" fill="#D5DAE9"/>
  <path d="M195.104 138.334H31.0242C30.1923 138.334 29.5186 137.66 29.5186 136.828V64.3369C29.5186 63.505 30.1923 62.8313 31.0242 62.8313H195.104C195.936 62.8313 196.609 63.505 196.609 64.3369V136.828C196.609 137.66 195.936 138.334 195.104 138.334Z" fill="white"/>
  <path d="M196.61 62.8313H29.5186V73.1717H196.61V62.8313Z" fill="#F2F3F8"/>
  <path d="M38.7354 70.1612C40.1592 70.1612 41.3123 69.0081 41.3123 67.5843C41.3123 66.1605 40.1592 65.0074 38.7354 65.0074C37.3116 65.0074 36.1584 66.1605 36.1584 67.5843C36.1584 69.0081 37.3116 70.1612 38.7354 70.1612Z" fill="#E0363F"/>
  <path d="M47.5704 70.1612C48.9942 70.1612 50.1474 69.0081 50.1474 67.5843C50.1474 66.1605 48.9942 65.0074 47.5704 65.0074C46.1466 65.0074 44.9935 66.1605 44.9935 67.5843C44.9935 69.0081 46.1466 70.1612 47.5704 70.1612Z" fill="#FACC15"/>
  <path d="M56.4036 70.1612C57.8274 70.1612 58.9805 69.0081 58.9805 67.5843C58.9805 66.1605 57.8274 65.0074 56.4036 65.0074C54.9798 65.0074 53.8267 66.1605 53.8267 67.5843C53.8267 69.0081 54.9798 70.1612 56.4036 70.1612Z" fill="#4CAF50"/>
  <path d="M158.244 114.173C158.244 115.25 157.374 116.12 156.296 116.12H69.832C68.7542 116.12 67.8843 115.25 67.8843 114.173V101.548C67.8843 100.47 68.7542 99.6006 69.832 99.6006H156.296C157.374 99.6006 158.244 100.47 158.244 101.548V114.173Z" fill="#F9FAFC"/>
  <path d="M158.244 88.8196C158.244 89.8973 157.374 90.7673 156.296 90.7673H69.832C68.7542 90.7673 67.8843 89.8973 67.8843 88.8196V76.1943C67.8843 75.1166 68.7542 74.2466 69.832 74.2466H156.296C157.374 74.2466 158.244 75.1166 158.244 76.1943V88.8196Z" fill="#F9FAFC"/>
  <path d="M118.564 127.952C117.732 127.952 117.059 127.278 117.059 126.446V125.941C117.059 125.109 117.732 124.435 118.564 124.435C119.396 124.435 120.07 125.109 120.07 125.941V126.446C120.07 127.278 119.396 127.952 118.564 127.952Z" fill="#1A2233"/>
  <path fill-rule="evenodd" clip-rule="evenodd" d="M113.064 62.8313C117.486 62.8313 121.075 59.242 121.075 54.8201C121.075 50.3982 117.486 46.8089 113.064 46.8089C108.642 46.8089 105.053 50.3982 105.053 54.8201C105.053 59.242 108.642 62.8313 113.064 62.8313Z" fill="#D5DAE9"/>
  <path d="M142.551 119.637H84.0752C83.2433 119.637 82.5696 118.963 82.5696 118.131C82.5696 117.299 83.2433 116.626 84.0752 116.626H142.551C143.383 116.626 144.057 117.299 144.057 118.131C144.057 118.963 143.383 119.637 142.551 119.637Z" fill="#F9FAFC"/>
  <path d="M142.551 127.952H84.0752C83.2433 127.952 82.5696 127.278 82.5696 126.446C82.5696 125.614 83.2433 124.941 84.0752 124.941H142.551C143.383 124.941 144.057 125.614 144.057 126.446C144.057 127.278 143.383 127.952 142.551 127.952Z" fill="#F9FAFC"/>
  <path d="M151.387 124.941H148.376C147.544 124.941 146.87 125.614 146.87 126.446C146.87 127.278 147.544 127.952 148.376 127.952H151.387C152.219 127.952 152.892 127.278 152.892 126.446C152.892 125.614 152.219 124.941 151.387 124.941Z" fill="#F9FAFC"/>
  <path d="M54.4664 154.5C37.7831 154.5 24.3379 141.055 24.3379 124.371C24.3379 107.688 37.7831 94.2425 54.4664 94.2425C71.1497 94.2425 84.5949 107.688 84.5949 124.371C84.5949 141.055 71.1497 154.5 54.4664 154.5Z" fill="#1A2233"/>
  <path fill-rule="evenodd" clip-rule="evenodd" d="M54.4539 124.372C54.4539 125.204 55.1276 125.877 55.9594 125.877C56.7913 125.877 57.465 125.204 57.465 124.372C57.465 123.54 56.7913 122.866 55.9594 122.866C55.1276 122.866 54.4539 123.54 54.4539 124.372Z" fill="#516FF5"/>
  <path d="M34.0332 102.556C34.0332 104.221 35.3815 105.569 37.0461 105.569C38.7108 105.569 40.059 104.221 40.059 102.556C40.059 100.891 38.7108 99.5433 37.0461 99.5433C35.3815 99.5433 34.0332 100.891 34.0332 102.556Z" fill="#516FF5"/>
  <path d="M44.9946 124.371C44.9946 124.371 48.4399 131.375 54.5229 131.878C60.6058 132.382 63.9365 124.371 63.9365 124.371" stroke="white" stroke-width="1.5051" stroke-miterlimit="10" stroke-linecap="round" stroke-linejoin="round"/>
  <path d="M175.293 40.3102C174.054 39.0708 172.122 39.0708 170.882 40.3102L159.536 51.656C158.296 52.8954 158.296 54.827 159.536 56.0664C160.775 57.3058 162.707 57.3058 163.946 56.0664L172.059 47.9538V65.8397C172.059 67.5043 173.408 68.8525 175.072 68.8525C176.737 68.8525 178.085 67.5043 178.085 65.8397V47.9573L186.229 56.07C186.849 56.6896 187.66 57 188.471 57C189.282 57 190.094 56.6878 190.714 56.07C191.953 54.8306 191.953 52.899 190.714 51.6596L179.368 40.3138C179.362 40.3066 179.354 40.303 179.346 40.2958C179.34 40.2922 179.331 40.285 179.327 40.2814L179.32 40.2742C178.68 39.6366 177.853 39.3174 177.024 39.3273C176.198 39.3381 175.376 39.6744 174.749 40.3192C174.744 40.3227 174.738 40.33 174.732 40.3335C174.725 40.3371 174.717 40.3407 174.712 40.3443C174.704 40.3515 174.697 40.3587 174.689 40.3659C174.683 40.3695 174.676 40.3731 174.67 40.3766C174.667 40.3802 174.665 40.3838 174.662 40.3874C174.662 40.3874 174.659 40.391 174.659 40.3931" fill="#1B6EF3"/>
  <path d="M190.173 150.648C187.161 150.648 184.723 148.209 184.723 145.198C184.723 142.186 187.161 139.748 190.173 139.748C193.185 139.748 195.623 142.186 195.623 145.198C195.623 148.209 193.185 150.648 190.173 150.648Z" fill="#1B6EF3"/>
  <path d="M190.173 148.234C188.493 148.234 187.137 146.878 187.137 145.198C187.137 143.517 188.493 142.162 190.173 142.162C191.854 142.162 193.209 143.517 193.209 145.198C193.209 146.878 191.854 148.234 190.173 148.234Z" fill="#85B5F8"/>
  <path d="M191.882 143.694C192.303 143.694 192.644 143.352 192.644 142.932C192.644 142.511 192.303 142.17 191.882 142.17C191.462 142.17 191.12 142.511 191.12 142.932C191.12 143.352 191.462 143.694 191.882 143.694Z" fill="white"/>
  <path d="M175.072 141.557C175.072 140.725 174.399 140.052 173.567 140.052H146.151C145.319 140.052 144.646 140.725 144.646 141.557C144.646 142.389 145.319 143.063 146.151 143.063H173.567C174.399 143.063 175.072 142.389 175.072 141.557Z" fill="#12D18E"/>
  <path d="M161.169 150.648C161.169 149.816 160.495 149.142 159.664 149.142H128.839C128.007 149.142 127.334 149.816 127.334 150.648C127.334 151.48 128.007 152.153 128.839 152.153H159.664C160.495 152.153 161.169 151.48 161.169 150.648Z" fill="#EBEEF5"/>
  <path d="M163.183 146.1C163.183 145.268 162.51 144.594 161.678 144.594H138.85C138.018 144.594 137.344 145.268 137.344 146.1C137.344 146.931 138.018 147.605 138.85 147.605H161.678C162.51 147.605 163.183 146.931 163.183 146.1Z" fill="#EBEEF5"/>
  <path d="M44.9947 115.535C44.9947 115.535 48.44 108.532 54.523 108.028C60.606 107.524 63.9366 115.535 63.9366 115.535" stroke="white" stroke-width="1.5051" stroke-miterlimit="10" stroke-linecap="round" stroke-linejoin="round"/>
</svg> 