<svg xmlns="http://www.w3.org/2000/svg" width="240" height="180" viewBox="0 0 240 180" fill="none">
  <ellipse cx="118.5" cy="154.5" rx="88.5" ry="25.5" fill="#E6E9F2"/>
  <path d="M118.564 145C137.72 145 153.128 129.593 153.128 110.436C153.128 91.2799 137.72 75.8722 118.564 75.8722C99.4076 75.8722 83.9999 91.2799 83.9999 110.436C83.9999 129.593 99.4076 145 118.564 145Z" fill="#D5DAE9"/>
  <path d="M76.4999 140.957C86.2467 140.957 94.1499 133.054 94.1499 123.307C94.1499 113.56 86.2467 105.657 76.4999 105.657C66.7532 105.657 58.8499 113.56 58.8499 123.307C58.8499 133.054 66.7532 140.957 76.4999 140.957Z" fill="#1A2233"/>
  <path fill-rule="evenodd" clip-rule="evenodd" d="M74.9999 105.657C74.9999 104.825 75.6736 104.151 76.5055 104.151C77.3374 104.151 78.0111 104.825 78.0111 105.657C78.0111 106.488 77.3374 107.162 76.5055 107.162C75.6736 107.162 74.9999 106.488 74.9999 105.657Z" fill="#516FF5"/>
  <path d="M69.4999 93.657C69.4999 95.3217 70.8482 96.6699 72.5128 96.6699C74.1774 96.6699 75.5257 95.3217 75.5257 93.657C75.5257 91.9924 74.1774 90.6441 72.5128 90.6441C70.8482 90.6441 69.4999 91.9924 69.4999 93.657Z" fill="#516FF5"/>
  <path d="M64.4999 123.307C64.4999 123.307 69.4961 133.312 76.5054 133.816C83.5147 134.32 88.4999 123.307 88.4999 123.307" stroke="white" stroke-width="1.5051" stroke-miterlimit="10" stroke-linecap="round" stroke-linejoin="round"/>
  <path d="M64.4999 108.657C64.4999 108.657 69.4961 98.6517 76.5054 98.1481C83.5147 97.6445 88.4999 108.657 88.4999 108.657" stroke="white" stroke-width="1.5051" stroke-miterlimit="10" stroke-linecap="round" stroke-linejoin="round"/>
  <rect x="108" y="41" width="90" height="128" rx="8" fill="white"/>
  <path d="M118.5 59.5C119.328 59.5 120.001 58.8284 120.001 58C120.001 57.1716 119.328 56.5 118.5 56.5C117.672 56.5 117 57.1716 117 58C117 58.8284 117.672 59.5 118.5 59.5Z" fill="#1A2233"/>
  <rect x="118" y="70" width="16" height="3" rx="1.5" fill="#1A2233"/>
  <rect x="138" y="70" width="16" height="3" rx="1.5" fill="#1A2233"/>
  <rect x="158" y="70" width="16" height="3" rx="1.5" fill="#1A2233"/>
  <rect x="138" y="50" width="36" height="3" rx="1.5" fill="#1A2233"/>
  <rect x="138" y="58" width="36" height="3" rx="1.5" fill="#1A2233"/>
  <rect x="122" y="95.5" width="60" height="10" rx="2" fill="#F4F4F6"/>
  <rect x="122" y="114.5" width="60" height="10" rx="2" fill="#F4F4F6"/>
  <rect x="122" y="133.5" width="60" height="10" rx="2" fill="#F4F4F6"/>
  <rect x="158" y="149.5" width="24" height="10" rx="5" fill="#1A2233"/>
  <path d="M150 89.5C150 88.6716 150.672 88 151.5 88H152.5C153.328 88 154 88.6716 154 89.5C154 90.3284 153.328 91 152.5 91H151.5C150.672 91 150 90.3284 150 89.5Z" fill="#1A2233"/>
  <path d="M144 89.5C144 88.6716 144.672 88 145.5 88H146.5C147.328 88 148 88.6716 148 89.5C148 90.3284 147.328 91 146.5 91H145.5C144.672 91 144 90.3284 144 89.5Z" fill="#1A2233"/>
  <path d="M138 89.5C138 88.6716 138.672 88 139.5 88H140.5C141.328 88 142 88.6716 142 89.5C142 90.3284 141.328 91 140.5 91H139.5C138.672 91 138 90.3284 138 89.5Z" fill="#1A2233"/>
  <path d="M132 89.5C132 88.6716 132.672 88 133.5 88H134.5C135.328 88 136 88.6716 136 89.5C136 90.3284 135.328 91 134.5 91H133.5C132.672 91 132 90.3284 132 89.5Z" fill="#1A2233"/>
  <path d="M126 89.5C126 88.6716 126.672 88 127.5 88H128.5C129.328 88 130 88.6716 130 89.5C130 90.3284 129.328 91 128.5 91H127.5C126.672 91 126 90.3284 126 89.5Z" fill="#1A2233"/>
  <path d="M124 100C124 99.1716 124.672 98.5 125.5 98.5H127.5C128.328 98.5 129 99.1716 129 100C129 100.828 128.328 101.5 127.5 101.5H125.5C124.672 101.5 124 100.828 124 100Z" fill="#1A2233"/>
  <path d="M124 119C124 118.172 124.672 117.5 125.5 117.5H127.5C128.328 117.5 129 118.172 129 119C129 119.828 128.328 120.5 127.5 120.5H125.5C124.672 120.5 124 119.828 124 119Z" fill="#1A2233"/>
  <path d="M124 138C124 137.172 124.672 136.5 125.5 136.5H127.5C128.328 136.5 129 137.172 129 138C129 138.828 128.328 139.5 127.5 139.5H125.5C124.672 139.5 124 138.828 124 138Z" fill="#1A2233"/>
  <path d="M132.5 154.5C132.5 153.672 133.172 153 134 153H152C152.828 153 153.5 153.672 153.5 154.5C153.5 155.328 152.828 156 152 156H134C133.172 156 132.5 155.328 132.5 154.5Z" fill="#1A2233"/>
  <path fill-rule="evenodd" clip-rule="evenodd" d="M169.03 42.5088C167.791 41.2694 165.859 41.2694 164.619 42.5088L153.273 53.8546C152.033 55.094 152.033 57.0256 153.273 58.265C154.512 59.5044 156.444 59.5044 157.683 58.265L165.796 50.1524V68.0383C165.796 69.7029 167.145 71.0511 168.809 71.0511C170.474 71.0511 171.822 69.7029 171.822 68.0383V50.1559L179.966 58.2686C180.586 58.8882 181.397 59.1986 182.208 59.1986C183.019 59.1986 183.831 58.8864 184.451 58.2686C185.69 57.0292 185.69 55.0976 184.451 53.8582L173.105 42.5124C173.099 42.5052 173.091 42.5016 173.083 42.4944C173.077 42.4908 173.068 42.4836 173.064 42.48L173.057 42.4728C172.417 41.8352 171.59 41.516 170.761 41.5259C169.935 41.5367 169.114 41.873 168.486 42.5178C168.481 42.5213 168.475 42.5286 168.469 42.5321C168.462 42.5357 168.454 42.5393 168.449 42.5429C168.441 42.5501 168.434 42.5573 168.426 42.5645C168.42 42.5681 168.413 42.5717 168.407 42.5752C168.404 42.5788 168.402 42.5824 168.399 42.586C168.399 42.586 168.396 42.5896 168.396 42.5917" fill="#516FF5"/>
  <path fill-rule="evenodd" clip-rule="evenodd" d="M178.416 43.5C174.016 43.5 170.416 47.0999 170.416 51.5C170.416 55.9001 174.016 59.5 178.416 59.5C182.816 59.5 186.416 55.9001 186.416 51.5C186.416 47.0999 182.816 43.5 178.416 43.5Z" fill="#516FF5"/>
  <path d="M178.416 57.2125C176.503 57.2125 174.823 56.1463 173.997 54.5C173.997 54.5 173.647 53.8463 174.301 53.5C174.954 53.1538 175.307 53.8075 175.307 53.8075C175.831 54.8613 177.06 55.5625 178.416 55.5625C179.772 55.5625 180.985 54.8613 181.526 53.8075C181.526 53.8075 181.878 53.1538 182.532 53.5C183.185 53.8463 182.836 54.5 182.836 54.5C182.01 56.1463 180.33 57.2125 178.416 57.2125Z" fill="white"/>
  <path d="M181.9 50.75C181.9 50.06 181.34 49.5 180.65 49.5C179.96 49.5 179.4 50.06 179.4 50.75C179.4 51.44 179.96 52 180.65 52C181.34 52 181.9 51.44 181.9 50.75Z" fill="white"/>
  <path d="M177.65 50.75C177.65 50.06 177.09 49.5 176.4 49.5C175.71 49.5 175.15 50.06 175.15 50.75C175.15 51.44 175.71 52 176.4 52C177.09 52 177.65 51.44 177.65 50.75Z" fill="white"/>
</svg> 